<svg width="18" height="17" viewBox="0 0 18 17" fill="none" xmlns="http://www.w3.org/2000/svg">
<path d="M4.3485 15.268L4.34889 15.2682C5.66866 16.1383 7.18483 16.25 9 16.25C10.8168 16.25 12.3315 16.1384 13.6534 15.268L13.6534 15.268C14.9843 14.3917 16.1702 13.1447 17.1246 11.6141C16.1703 10.0836 14.9842 8.83622 13.6529 7.95811C12.2932 7.06176 10.7321 6.75 9 6.75C7.26984 6.75 5.70875 7.06173 4.34902 7.95811L4.3485 15.268ZM4.3485 15.268C3.01739 14.3916 1.83001 13.1446 0.875609 11.6144M4.3485 15.268L0.875609 11.6144M0.875609 11.6144C1.83155 10.0836 3.01763 8.83627 4.34889 7.95819L0.875609 11.6144Z" stroke="#6C707E" stroke-width="1.5"/>
<path fill-rule="evenodd" clip-rule="evenodd" d="M8.24989 0V6.5L9.74989 6.5V0H8.24989ZM1.3999 3.45001L4.40009 7.4501L5.60008 6.55008L2.59988 2.54999L1.3999 3.45001ZM6.73664 9.0066L4.74901 11.1599L4.27943 11.6686L4.74901 12.1773L6.73664 14.3306L7.83885 13.3131L6.3208 11.6686L7.83885 10.024L6.73664 9.0066ZM12.3999 6.55L15.3999 2.55L16.5999 3.45L13.5999 7.45L12.3999 6.55Z" fill="#6C707E"/>
<path d="M10.3005 9.51526L12.2881 11.6685L10.3005 13.8218" stroke="#6C707E" stroke-width="1.5"/>
</svg>
