<svg width="18" height="17" viewBox="0 0 18 17" fill="none" xmlns="http://www.w3.org/2000/svg">
<path d="M4.3485 15.268L4.34889 15.2682C5.66866 16.1383 7.18483 16.25 9 16.25C10.8168 16.25 12.3315 16.1384 13.6534 15.268L13.6534 15.268C14.9843 14.3917 16.1702 13.1447 17.1246 11.6141C16.1703 10.0836 14.9842 8.83622 13.6529 7.95811C12.2932 7.06176 10.7321 6.75 9 6.75C7.26984 6.75 5.70875 7.06173 4.34902 7.95811L4.3485 15.268ZM4.3485 15.268C3.01739 14.3916 1.83001 13.1446 0.875609 11.6144M4.3485 15.268L0.875609 11.6144M0.875609 11.6144C1.83155 10.0836 3.01763 8.83627 4.34889 7.95819L0.875609 11.6144Z" stroke="#CED0D6" stroke-width="1.5"/>
<path d="M10.6069 13.8209L12.9258 11.6677L10.6069 9.51439" stroke="#CED0D6" stroke-width="1.5"/>
<path d="M7.28792 9.51526L5.30029 11.6685L7.28792 13.8218" stroke="#CED0D6" stroke-width="1.5"/>
<path d="M2 3L5.00019 7.00009" stroke="#CED0D6" stroke-width="1.5"/>
<path d="M16 3L13 7" stroke="#CED0D6" stroke-width="1.5"/>
<path d="M9 0L9 6.5" stroke="#CED0D6" stroke-width="1.5"/>
</svg>
