<svg width="14" height="14" viewBox="0 0 14 14" fill="none" xmlns="http://www.w3.org/2000/svg">
    <path d="M3.32562 11.6757L3.32532 11.6755C2.29183 10.9951 1.38954 10.1374 0.669597 8.99832C1.41059 7.79645 2.32048 6.74865 3.32572 6.08563C4.37734 5.39237 5.69562 5.07353 7 5.07353C8.28599 5.07353 9.37429 5.38276 10.4405 6.0857C11.4749 6.76792 12.5767 7.82855 13.3267 8.99799C12.5935 10.1104 11.5112 10.9708 10.4408 11.6755L10.4408 11.6755C9.30844 12.4211 8.22523 12.9265 7 12.9265C5.75764 12.9265 4.43233 12.4053 3.32562 11.6757Z" stroke="#6C707E" stroke-width="1.14706"/>
    <path fill-rule="evenodd" clip-rule="evenodd" d="M6.4267 0V5L7.57376 5V0H6.4267ZM1.0708 2.63824L3.36506 5.69714L4.2827 5.00888L1.98843 1.94999L1.0708 2.63824ZM5.29877 6.81098L3.77877 8.45759L3.41966 8.84661L3.77877 9.23564L5.29877 10.8823L6.14162 10.1042L4.98073 8.84661L6.14162 7.58902L5.29877 6.81098ZM9.48256 5.00882L11.7767 1.95L12.6943 2.63824L10.4002 5.69706L9.48256 5.00882Z" fill="#6C707E"/>
    <path d="M8.27985 7.19995L9.7998 8.84657L8.27985 10.4932" stroke="#6C707E" stroke-width="1.14706"/>
</svg>
